PathFileType	4	(X/Y/Z)	SUBJ26_0_static_RCNL2025.trc
DataRate	CameraRate	NumFrames	NumMarkers	Units	OrigDataRate	OrigDataStartFrame	OrigNumFrames
100	100	4	25	mm	100	1	101
Frame#	Time	R_Shoulder			L_Shoulder			C7			J_Notch			R_Elbow			L_Elbow			R_Wrist			L_Wrist			R_Asis			L_Asis			Sacral			Thoracic			Sternum			R_Thigh_Lateral			R_Knee_Lateral			R_Shank_Lateral			R_Ankle_Lateral			R_Heel			R_Toe			L_Thigh_Lateral			L_Knee_Lateral			L_Shank_Lateral			L_Ankle_Lateral			L_Heel			L_Toe		
		X1	Y1	Z1	X2	Y2	Z2	X3	Y3	Z3	X4	Y4	Z4	X5	Y5	Z5	X6	Y6	Z6	X7	Y7	Z7	X8	Y8	Z8	X9	Y9	Z9	X10	Y10	Z10	X11	Y11	Z11	X12	Y12	Z12	X13	Y13	Z13	X14	Y14	Z14	X15	Y15	Z15	X16	Y16	Z16	X17	Y17	Z17	X18	Y18	Z18	X19	Y19	Z19	X20	Y20	Z20	X21	Y21	Z21	X22	Y22	Z22	X23	Y23	Z23	X24	Y24	Z24	X25	Y25	Z25
1	0.00000000	-217.979446	1342.676880	-76.424171	-237.756836	1351.793335	-396.647156	-305.359985	1387.276001	-222.850098	-151.246719	1304.811768	-244.496475	-287.798676	1021.464478	19.604324	-297.355408	1029.229492	-501.207184	-205.941963	785.988525	63.418896	-208.499008	802.672791	-544.055481	-141.341202	936.132568	-104.355072	-163.277863	930.261902	-405.650024	-356.294037	924.206665	-231.011246	-346.432953	1037.723022	-233.019073	-78.438599	1049.695557	-239.250580	-252.662674	593.473694	-52.342731	-269.535950	446.318817	-123.737953	-294.778198	296.920563	-80.826271	-301.785828	55.623245	-151.694351	-352.844269	40.801662	-211.907089	-178.033203	44.994133	-172.739731	-243.380402	613.104675	-438.011444	-279.019257	449.990875	-357.412292	-291.473267	267.631927	-421.454010	-296.325928	61.009991	-329.220276	-357.683716	39.013870	-280.480194	-175.368591	43.525696	-290.228790
2	0.01000000	-217.832581	1342.623169	-76.134125	-237.710159	1351.778809	-396.311676	-305.267548	1387.218994	-222.572540	-151.238205	1304.751587	-244.295105	-287.777283	1021.319458	19.875095	-297.426941	1029.276367	-500.888428	-205.912323	785.832306	63.559792	-208.638161	802.724518	-543.884949	-141.024307	936.210205	-104.033638	-163.352371	930.309387	-405.477112	-356.225677	924.163086	-230.656250	-346.354645	1037.705444	-232.755722	-78.428169	1049.615479	-239.047577	-252.655075	593.459412	-52.190414	-269.653687	446.306152	-123.631561	-294.762726	296.830200	-80.889191	-301.763275	55.572426	-151.698685	-352.862152	40.746796	-211.880875	-178.048676	44.938026	-172.698715	-243.405441	613.112122	-437.909546	-279.053558	450.047485	-357.359741	-291.447083	267.633301	-421.376831	-296.295502	61.060974	-329.252136	-357.645782	38.983997	-280.507660	-175.347809	43.518757	-290.277527
3	0.02000000	-217.659439	1342.551392	-75.885330	-237.791672	1351.759888	-395.968994	-305.220459	1387.190674	-222.196289	-151.310806	1304.675537	-243.979965	-287.742584	1021.230103	20.113464	-297.517853	1029.204468	-500.530151	-205.900894	785.747070	63.722065	-208.701546	802.729340	-543.632904	-140.800751	936.304688	-103.800278	-163.262985	930.348511	-405.306824	-356.199158	924.107605	-230.396317	-346.345428	1037.613281	-232.488129	-78.509430	1049.618408	-238.914566	-252.592194	593.427185	-52.030262	-269.639313	446.277954	-123.506859	-294.793396	296.785034	-80.747437	-301.785248	55.514416	-151.691803	-352.861328	40.719002	-211.880753	-178.097504	44.917976	-172.642349	-243.479187	613.149536	-437.835754	-278.994904	450.040894	-357.262329	-291.373535	267.644135	-421.319122	-296.374969	61.055275	-329.208801	-357.680878	38.956150	-280.458282	-175.357971	43.476841	-290.316437
4	0.03000000	-217.645309	1342.440063	-75.492844	-237.894760	1351.731689	-395.613251	-305.299072	1387.125854	-221.881943	-151.424255	1304.554565	-243.633636	-287.638977	1021.125610	20.322489	-297.560608	1029.262451	-500.277649	-205.945320	785.496765	63.893431	-208.716949	802.724731	-543.439240	-140.597794	936.251648	-103.637726	-163.220840	930.411316	-405.066833	-356.176056	924.121643	-230.252686	-346.254272	1037.580933	-232.264481	-78.509308	1049.565552	-238.672699	-252.525406	593.321838	-51.944256	-269.691376	446.285278	-123.398911	-294.863586	296.814331	-80.756538	-301.815582	55.508755	-151.672256	-352.855560	40.715416	-211.853455	-178.068665	44.923088	-172.685806	-243.507797	613.130920	-437.665405	-279.025940	450.088806	-357.161835	-291.301453	267.745972	-421.355164	-296.356812	61.080013	-329.208679	-357.689209	38.876617	-280.458893	-175.391174	43.490765	-290.217438
